<?xml version="1.0" encoding="UTF-8" standalone="no"?><svg xmlns="http://www.w3.org/2000/svg" xmlns:xlink="http://www.w3.org/1999/xlink" contentScriptType="application/ecmascript" contentStyleType="text/css" height="297px" preserveAspectRatio="none" style="width:526px;height:297px;" version="1.1" viewBox="0 0 526 297" width="526px" zoomAndPan="magnify"><defs><filter height="300%" id="f17n44e7zy5wnm" width="300%" x="-1" y="-1"><feGaussianBlur result="blurOut" stdDeviation="2.0"/><feColorMatrix in="blurOut" result="blurOut2" type="matrix" values="0 0 0 0 0 0 0 0 0 0 0 0 0 0 0 0 0 0 .4 0"/><feOffset dx="4.0" dy="4.0" in="blurOut2" result="blurOut3"/><feBlend in="SourceGraphic" in2="blurOut3" mode="normal"/></filter></defs><g><!--cluster java.lang--><polygon fill="#FFFFFF" filter="url(#f17n44e7zy5wnm)" points="209,16,277,16,284,41.0679,309,41.0679,309,117,209,117,209,16" style="stroke: #000000; stroke-width: 1.5;"/><line style="stroke: #000000; stroke-width: 1.5;" x1="209" x2="284" y1="41.0679" y2="41.0679"/><text fill="#000000" font-family="sans-serif" font-size="14" font-weight="bold" lengthAdjust="spacingAndGlyphs" textLength="62" x="213" y="32.9659">java.lang</text><!--cluster de.thro.inf.prg3.a10.kitchen.workers--><polygon fill="#FFFFFF" filter="url(#f17n44e7zy5wnm)" points="14,139,274,139,281,164.0679,504,164.0679,504,285,14,285,14,139" style="stroke: #000000; stroke-width: 1.5;"/><line style="stroke: #000000; stroke-width: 1.5;" x1="14" x2="281" y1="164.0679" y2="164.0679"/><text fill="#000000" font-family="sans-serif" font-size="14" font-weight="bold" lengthAdjust="spacingAndGlyphs" textLength="254" x="18" y="155.9659">de.thro.inf.prg3.a10.kitchen.workers</text><!--class Runnable--><rect fill="#FEFECE" filter="url(#f17n44e7zy5wnm)" height="62.9819" id="Runnable" style="stroke: #A80036; stroke-width: 1.5;" width="83" x="217.5" y="46"/><ellipse cx="232.5" cy="62" fill="#B4A7E5" rx="11" ry="11" style="stroke: #A80036; stroke-width: 1.0;"/><path d="M235.0625,68.5 L229.5469,68.5 L229.5469,67.0313 L231.0156,66.3594 L231.0156,58.5 L229.5469,57.8281 L229.5469,56.3594 L235.0625,56.3594 L235.0625,57.8281 L233.5938,58.5 L233.5938,66.3594 L235.0625,67.0313 L235.0625,68.5 Z "/><text fill="#000000" font-family="sans-serif" font-size="12" font-style="italic" lengthAdjust="spacingAndGlyphs" textLength="51" x="246.5" y="66.656">Runnable</text><line style="stroke: #A80036; stroke-width: 1.5;" x1="218.5" x2="299.5" y1="78" y2="78"/><line style="stroke: #A80036; stroke-width: 1.5;" x1="218.5" x2="299.5" y1="86" y2="86"/><text fill="#000000" font-family="sans-serif" font-size="11" lengthAdjust="spacingAndGlyphs" textLength="28" x="223.5" y="101.7589">run();</text><!--class Cook--><rect fill="#FEFECE" filter="url(#f17n44e7zy5wnm)" height="107.9276" id="Cook" style="stroke: #A80036; stroke-width: 1.5;" width="475" x="21.5" y="169"/><ellipse cx="235.25" cy="185" fill="#ADD1B2" rx="11" ry="11" style="stroke: #A80036; stroke-width: 1.0;"/><path d="M234.9375,181.3281 Q233.4531,181.3281 232.6719,182.4375 Q231.8906,183.5469 231.8906,185.4688 Q231.8906,187.4063 232.6094,188.4688 Q233.3281,189.5313 234.9375,189.5313 Q235.6719,189.5313 236.4063,189.3594 Q237.1563,189.1875 238.0313,188.875 L238.0313,191.0469 Q237.2188,191.3594 236.4375,191.5156 Q235.6563,191.6719 234.6875,191.6719 Q232.8281,191.6719 231.6094,190.9063 Q230.3906,190.125 229.8125,188.7188 Q229.2344,187.3125 229.2344,185.4531 Q229.2344,183.6094 229.8906,182.2031 Q230.5625,180.7969 231.8281,180 Q233.0938,179.1875 234.9375,179.1875 Q235.8281,179.1875 236.7344,179.4219 Q237.6563,179.6563 238.4844,180.0469 L237.6563,182.1406 Q236.9688,181.8125 236.2813,181.5781 Q235.5938,181.3281 234.9375,181.3281 Z "/><ellipse cx="260.75" cy="184.5" fill="#84BE84" rx="3" ry="3" style="stroke: #038048; stroke-width: 1.0;"/><text fill="#000000" font-family="sans-serif" font-size="12" lengthAdjust="spacingAndGlyphs" textLength="28" x="266.75" y="189.656">Cook</text><line style="stroke: #A80036; stroke-width: 1.5;" x1="22.5" x2="495.5" y1="201" y2="201"/><rect fill="none" height="6" style="stroke: #C82930; stroke-width: 1.0;" width="6" x="29.5" y="210.9909"/><text fill="#000000" font-family="sans-serif" font-size="11" lengthAdjust="spacingAndGlyphs" textLength="67" x="41.5" y="216.7589">name: String</text><rect fill="none" height="6" style="stroke: #C82930; stroke-width: 1.0;" width="6" x="29.5" y="225.9728"/><text fill="#000000" font-family="sans-serif" font-size="11" lengthAdjust="spacingAndGlyphs" textLength="194" x="41.5" y="231.7408">progressReporter: ProgressReporter</text><rect fill="none" height="6" style="stroke: #C82930; stroke-width: 1.0;" width="6" x="29.5" y="240.9547"/><text fill="#000000" font-family="sans-serif" font-size="11" lengthAdjust="spacingAndGlyphs" textLength="143" x="41.5" y="246.7227">kitchenHatch: KitchenHatch</text><line style="stroke: #A80036; stroke-width: 1.5;" x1="22.5" x2="495.5" y1="253.9457" y2="253.9457"/><ellipse cx="32.5" cy="266.9366" fill="#84BE84" rx="3" ry="3" style="stroke: #038048; stroke-width: 1.0;"/><text fill="#000000" font-family="sans-serif" font-size="11" lengthAdjust="spacingAndGlyphs" textLength="449" x="41.5" y="269.7046">Cook(name: String, kitchenHatch: KitchenHatch, progressReporter: ProgressReporter)</text><!--link Runnable to Cook--><path d="M259,129.42 C259,142.2253 259,155.9708 259,168.8777 " fill="none" id="Runnable-Cook" style="stroke: #A80036; stroke-width: 1.0; stroke-dasharray: 7.0,7.0;"/><polygon fill="none" points="252.0001,129.0714,259,109.0713,266.0001,129.0713,252.0001,129.0714" style="stroke: #A80036; stroke-width: 1.0;"/><!--
@startuml Cook

package java.lang {
    interface Runnable {
        run();
    }
}

package de.thro.inf.prg3.a10.kitchen.workers {
    +class Cook implements Runnable {
        -name: String
        -progressReporter: ProgressReporter
        -kitchenHatch: KitchenHatch
        +Cook(name: String, kitchenHatch: KitchenHatch, progressReporter: ProgressReporter)
    }
}

@enduml

PlantUML version 1.2018.13(Mon Nov 26 18:11:51 CET 2018)
(GPL source distribution)
Java Runtime: OpenJDK Runtime Environment
JVM: OpenJDK 64-Bit Server VM
Java Version: 11.0.1+13
Operating System: Linux
OS Version: 4.19.8-arch1-1-ARCH
Default Encoding: UTF-8
Language: en
Country: US
--></g></svg>