<?xml version="1.0" encoding="UTF-8" standalone="no"?><svg xmlns="http://www.w3.org/2000/svg" xmlns:xlink="http://www.w3.org/1999/xlink" contentScriptType="application/ecmascript" contentStyleType="text/css" height="357px" preserveAspectRatio="none" style="width:374px;height:357px;" version="1.1" viewBox="0 0 374 357" width="374px" zoomAndPan="magnify"><defs><filter height="300%" id="f1erslkle4neln" width="300%" x="-1" y="-1"><feGaussianBlur result="blurOut" stdDeviation="2.0"/><feColorMatrix in="blurOut" result="blurOut2" type="matrix" values="0 0 0 0 0 0 0 0 0 0 0 0 0 0 0 0 0 0 .4 0"/><feOffset dx="4.0" dy="4.0" in="blurOut2" result="blurOut3"/><feBlend in="SourceGraphic" in2="blurOut3" mode="normal"/></filter></defs><g><!--cluster de.thro.inf.prg3.a10.kitchen--><polygon fill="#FFFFFF" filter="url(#f1erslkle4neln)" points="14,16,213,16,220,41.0679,352,41.0679,352,345,14,345,14,16" style="stroke: #000000; stroke-width: 1.5;"/><line style="stroke: #000000; stroke-width: 1.5;" x1="14" x2="220" y1="41.0679" y2="41.0679"/><text fill="#000000" font-family="sans-serif" font-size="14" font-weight="bold" lengthAdjust="spacingAndGlyphs" textLength="193" x="18" y="32.9659">de.thro.inf.prg3.a10.kitchen</text><!--class KitchenHatch--><rect fill="#FEFECE" filter="url(#f1erslkle4neln)" height="167.8551" id="KitchenHatch" style="stroke: #A80036; stroke-width: 1.5;" width="205" x="80.5" y="46"/><ellipse cx="138.25" cy="62" fill="#B4A7E5" rx="11" ry="11" style="stroke: #A80036; stroke-width: 1.0;"/><path d="M140.8125,68.5 L135.2969,68.5 L135.2969,67.0313 L136.7656,66.3594 L136.7656,58.5 L135.2969,57.8281 L135.2969,56.3594 L140.8125,56.3594 L140.8125,57.8281 L139.3438,58.5 L139.3438,66.3594 L140.8125,67.0313 L140.8125,68.5 Z "/><ellipse cx="163.75" cy="61.5" fill="#84BE84" rx="3" ry="3" style="stroke: #038048; stroke-width: 1.0;"/><text fill="#000000" font-family="sans-serif" font-size="12" font-style="italic" lengthAdjust="spacingAndGlyphs" textLength="70" x="169.75" y="66.656">KitchenHatch</text><line style="stroke: #A80036; stroke-width: 1.5;" x1="81.5" x2="284.5" y1="78" y2="78"/><line style="stroke: #A80036; stroke-width: 1.5;" x1="81.5" x2="284.5" y1="86" y2="86"/><text fill="#000000" font-family="sans-serif" font-size="11" lengthAdjust="spacingAndGlyphs" textLength="99" x="86.5" y="101.7589">getMaxDishes(): int</text><text fill="#000000" font-family="sans-serif" font-size="11" lengthAdjust="spacingAndGlyphs" textLength="107" x="86.5" y="116.7408">getOrderCount(): int</text><text fill="#000000" font-family="sans-serif" font-size="11" lengthAdjust="spacingAndGlyphs" textLength="109" x="86.5" y="131.7227">getDishesCount(): int</text><text fill="#000000" font-family="sans-serif" font-size="11" lengthAdjust="spacingAndGlyphs" textLength="122" x="86.5" y="146.7046">dequeueOrder(): Order</text><text fill="#000000" font-family="sans-serif" font-size="11" lengthAdjust="spacingAndGlyphs" textLength="193" x="86.5" y="161.6865">dequeueOrder(timeout: long): Order</text><text fill="#000000" font-family="sans-serif" font-size="11" lengthAdjust="spacingAndGlyphs" textLength="104" x="86.5" y="176.6684">dequeueDish(): Dish</text><text fill="#000000" font-family="sans-serif" font-size="11" lengthAdjust="spacingAndGlyphs" textLength="175" x="86.5" y="191.6502">dequeueDish(timeout: long): Dish</text><text fill="#000000" font-family="sans-serif" font-size="11" lengthAdjust="spacingAndGlyphs" textLength="126" x="86.5" y="206.6321">enqueueDish(dish: Dish)</text><!--class KitchenHatchImpl--><rect fill="#FEFECE" filter="url(#f1erslkle4neln)" height="62.9819" id="KitchenHatchImpl" style="stroke: #A80036; stroke-width: 1.5;" width="322" x="22" y="274"/><ellipse cx="123.75" cy="290" fill="#ADD1B2" rx="11" ry="11" style="stroke: #A80036; stroke-width: 1.0;"/><path d="M123.4375,286.3281 Q121.9531,286.3281 121.1719,287.4375 Q120.3906,288.5469 120.3906,290.4688 Q120.3906,292.4063 121.1094,293.4688 Q121.8281,294.5313 123.4375,294.5313 Q124.1719,294.5313 124.9063,294.3594 Q125.6563,294.1875 126.5313,293.875 L126.5313,296.0469 Q125.7188,296.3594 124.9375,296.5156 Q124.1563,296.6719 123.1875,296.6719 Q121.3281,296.6719 120.1094,295.9063 Q118.8906,295.125 118.3125,293.7188 Q117.7344,292.3125 117.7344,290.4531 Q117.7344,288.6094 118.3906,287.2031 Q119.0625,285.7969 120.3281,285 Q121.5938,284.1875 123.4375,284.1875 Q124.3281,284.1875 125.2344,284.4219 Q126.1563,284.6563 126.9844,285.0469 L126.1563,287.1406 Q125.4688,286.8125 124.7813,286.5781 Q124.0938,286.3281 123.4375,286.3281 Z "/><ellipse cx="149.25" cy="289.5" fill="#84BE84" rx="3" ry="3" style="stroke: #038048; stroke-width: 1.0;"/><text fill="#000000" font-family="sans-serif" font-size="12" lengthAdjust="spacingAndGlyphs" textLength="99" x="155.25" y="294.656">KitchenHatchImpl</text><line style="stroke: #A80036; stroke-width: 1.5;" x1="23" x2="343" y1="306" y2="306"/><line style="stroke: #A80036; stroke-width: 1.5;" x1="23" x2="343" y1="314" y2="314"/><ellipse cx="33" cy="326.9909" fill="#84BE84" rx="3" ry="3" style="stroke: #038048; stroke-width: 1.0;"/><text fill="#000000" font-family="sans-serif" font-size="11" lengthAdjust="spacingAndGlyphs" textLength="296" x="42" y="329.7589">KitchenHatchImpl(maxMeals: int, orders: Deque&lt;Order&gt;)</text><!--link KitchenHatch to KitchenHatchImpl--><path d="M183,234.5311 C183,248.7737 183,262.4037 183,273.8437 " fill="none" id="KitchenHatch-KitchenHatchImpl" style="stroke: #A80036; stroke-width: 1.0; stroke-dasharray: 7.0,7.0;"/><polygon fill="none" points="176.0001,234.1518,183,214.1518,190.0001,234.1517,176.0001,234.1518" style="stroke: #A80036; stroke-width: 1.0;"/><!--
@startuml KitchenHatch

package de.thro.inf.prg3.a10.kitchen {
    +interface KitchenHatch {
        getMaxDishes(): int
        getOrderCount(): int
        getDishesCount(): int
        dequeueOrder(): Order
        dequeueOrder(timeout: long): Order
        dequeueDish(): Dish
        dequeueDish(timeout: long): Dish
        enqueueDish(dish: Dish)
    }

    +class KitchenHatchImpl implements KitchenHatch {
        +KitchenHatchImpl(maxMeals: int, orders: Deque<Order>)
    }
}

@enduml

PlantUML version 1.2018.13(Mon Nov 26 18:11:51 CET 2018)
(GPL source distribution)
Java Runtime: OpenJDK Runtime Environment
JVM: OpenJDK 64-Bit Server VM
Java Version: 11.0.1+13
Operating System: Linux
OS Version: 4.19.8-arch1-1-ARCH
Default Encoding: UTF-8
Language: en
Country: US
--></g></svg>